HIERARCHY
ROOT Root
{
  OFFSET 0.0 0.0 0.0
  CHANNELS 6 Xposition Yposition Zposition Zrotation Yrotation Xrotation
  JOINT Hips
  {
    OFFSET 0.0 100.0 0.0
    CHANNELS 6 Xposition Yposition Zposition Zrotation Yrotation Xrotation
    JOINT Spine1
    {
      OFFSET -0.013727 5.003763 -0.053727
      CHANNELS 3 Zrotation Yrotation Xrotation
      JOINT Spine2
      {
        OFFSET -0.0 7.125301 -0.029825
        CHANNELS 3 Zrotation Yrotation Xrotation
        JOINT Chest
        {
          OFFSET -1e-06 7.550063 -0.815971
          CHANNELS 3 Zrotation Yrotation Xrotation
          JOINT Neck1
          {
            OFFSET -0.181677 26.311295 -0.553348
            CHANNELS 3 Zrotation Yrotation Xrotation
            JOINT Neck2
            {
              OFFSET -3e-06 7.709397 2.302585
              CHANNELS 3 Zrotation Yrotation Xrotation
              JOINT Head
              {
                OFFSET -5e-06 6.128916 1.953709
                CHANNELS 3 Zrotation Yrotation Xrotation
                JOINT HeadEnd
                {
                  OFFSET 0.003598 16.065403 -1.835379
                  CHANNELS 3 Zrotation Yrotation Xrotation
                }
                JOINT Jaw
                {
                  OFFSET 0.002637 0.475592 3.094941
                  CHANNELS 3 Zrotation Yrotation Xrotation
                }
                JOINT LeftEye
                {
                  OFFSET 3.206381 5.380205 7.586883
                  CHANNELS 3 Zrotation Yrotation Xrotation
                }
                JOINT RightEye
                {
                  OFFSET -3.22244 5.361869 7.558234
                  CHANNELS 3 Zrotation Yrotation Xrotation
                }
              }
            }
          }
          JOINT LeftShoulder
          {
            OFFSET 1.621652 23.237164 5.113413
            CHANNELS 3 Zrotation Yrotation Xrotation
            JOINT LeftArm
            {
              OFFSET 14.919846 2e-06 -5.502326
              CHANNELS 3 Zrotation Yrotation Xrotation
              JOINT LeftForeArm
              {
                OFFSET 28.739307 0.0 -0.002588
                CHANNELS 3 Zrotation Yrotation Xrotation
                JOINT LeftHand
                {
                  OFFSET 27.093981 -1e-06 0.002609
                  CHANNELS 3 Zrotation Yrotation Xrotation
                  JOINT LeftHandThumb1
                  {
                    OFFSET 2.276482 -1.392045 3.191413
                    CHANNELS 3 Zrotation Yrotation Xrotation
                    JOINT LeftHandThumb2
                    {
                      OFFSET 4.012836 -1.828127 1.641654
                      CHANNELS 3 Zrotation Yrotation Xrotation
                      JOINT LeftHandThumb3
                      {
                        OFFSET 2.798515 0.0 -3e-06
                        CHANNELS 3 Zrotation Yrotation Xrotation
                        JOINT LeftHandThumbEnd
                        {
                          OFFSET 3.180793 -4e-06 4e-06
                          CHANNELS 3 Zrotation Yrotation Xrotation
                        }
                      }
                    }
                  }
                  JOINT LeftHandIndex1
                  {
                    OFFSET 3.247555 -0.531998 2.296169
                    CHANNELS 3 Zrotation Yrotation Xrotation
                    JOINT LeftHandIndex2
                    {
                      OFFSET 6.364578 0.01206 0.1786
                      CHANNELS 3 Zrotation Yrotation Xrotation
                      JOINT LeftHandIndex3
                      {
                        OFFSET 3.662364 0.0 0.0
                        CHANNELS 3 Zrotation Yrotation Xrotation
                        JOINT LeftHandIndex4
                        {
                          OFFSET 2.329242 4e-06 4e-06
                          CHANNELS 3 Zrotation Yrotation Xrotation
                          JOINT LeftHandIndexEnd
                          {
                            OFFSET 2.759615 -0.180537 -0.113024
                            CHANNELS 3 Zrotation Yrotation Xrotation
                          }
                        }
                      }
                    }
                  }
                  JOINT LeftHandMiddle1
                  {
                    OFFSET 3.163495 0.240981 1.000332
                    CHANNELS 3 Zrotation Yrotation Xrotation
                    JOINT LeftHandMiddle2
                    {
                      OFFSET 6.19078 -0.259278 -1.002548
                      CHANNELS 3 Zrotation Yrotation Xrotation
                      JOINT LeftHandMiddle3
                      {
                        OFFSET 4.35652 -4e-06 -1e-06
                        CHANNELS 3 Zrotation Yrotation Xrotation
                        JOINT LeftHandMiddle4
                        {
                          OFFSET 2.996877 -8e-06 0.0
                          CHANNELS 3 Zrotation Yrotation Xrotation
                          JOINT LeftHandMiddleEnd
                          {
                            OFFSET 2.304287 -0.294569 -0.031741
                            CHANNELS 3 Zrotation Yrotation Xrotation
                          }
                        }
                      }
                    }
                  }
                  JOINT LeftHandRing1
                  {
                    OFFSET 2.882643 -0.053652 -0.322543
                    CHANNELS 3 Zrotation Yrotation Xrotation
                    JOINT LeftHandRing2
                    {
                      OFFSET 5.854541 -0.486202 -1.373841
                      CHANNELS 3 Zrotation Yrotation Xrotation
                      JOINT LeftHandRing3
                      {
                        OFFSET 4.350578 0.0 3e-06
                        CHANNELS 3 Zrotation Yrotation Xrotation
                        JOINT LeftHandRing4
                        {
                          OFFSET 2.651321 7e-06 2e-06
                          CHANNELS 3 Zrotation Yrotation Xrotation
                          JOINT LeftHandRingEnd
                          {
                            OFFSET 1.936105 0.077687 -7.1e-05
                            CHANNELS 3 Zrotation Yrotation Xrotation
                          }
                        }
                      }
                    }
                  }
                  JOINT LeftHandPinky1
                  {
                    OFFSET 2.8655 -0.310005 -1.600378
                    CHANNELS 3 Zrotation Yrotation Xrotation
                    JOINT LeftHandPinky2
                    {
                      OFFSET 5.087849 -1.331141 -1.77123
                      CHANNELS 3 Zrotation Yrotation Xrotation
                      JOINT LeftHandPinky3
                      {
                        OFFSET 3.070974 4e-06 0.0
                        CHANNELS 3 Zrotation Yrotation Xrotation
                        JOINT LeftHandPinky4
                        {
                          OFFSET 1.549672 0.0 1e-06
                          CHANNELS 3 Zrotation Yrotation Xrotation
                          JOINT LeftHandPinkyEnd
                          {
                            OFFSET 1.944893 -0.157802 0.057219
                            CHANNELS 3 Zrotation Yrotation Xrotation
                          }
                        }
                      }
                    }
                  }
                }
              }
            }
          }
          JOINT RightShoulder
          {
            OFFSET -1.380118 23.180309 5.214158
            CHANNELS 3 Zrotation Yrotation Xrotation
            JOINT RightArm
            {
              OFFSET -15.037196 1.2e-05 -5.545604
              CHANNELS 3 Zrotation Yrotation Xrotation
              JOINT RightForeArm
              {
                OFFSET -28.736639 2e-06 -0.002597
                CHANNELS 3 Zrotation Yrotation Xrotation
                JOINT RightHand
                {
                  OFFSET -27.133619 -0.0 0.002613
                  CHANNELS 3 Zrotation Yrotation Xrotation
                  JOINT RightHandThumb1
                  {
                    OFFSET -2.274032 -1.383988 3.163127
                    CHANNELS 3 Zrotation Yrotation Xrotation
                    JOINT RightHandThumb2
                    {
                      OFFSET -4.011429 -1.827466 1.640914
                      CHANNELS 3 Zrotation Yrotation Xrotation
                      JOINT RightHandThumb3
                      {
                        OFFSET -2.794935 -4e-06 -3e-06
                        CHANNELS 3 Zrotation Yrotation Xrotation
                        JOINT RightHandThumbEnd
                        {
                          OFFSET -3.183852 4e-06 1e-06
                          CHANNELS 3 Zrotation Yrotation Xrotation
                        }
                      }
                    }
                  }
                  JOINT RightHandIndex1
                  {
                    OFFSET -3.253266 -0.520057 2.282866
                    CHANNELS 3 Zrotation Yrotation Xrotation
                    JOINT RightHandIndex2
                    {
                      OFFSET -6.341917 0.012471 0.178266
                      CHANNELS 3 Zrotation Yrotation Xrotation
                      JOINT RightHandIndex3
                      {
                        OFFSET -3.654871 -8e-06 -0.0
                        CHANNELS 3 Zrotation Yrotation Xrotation
                        JOINT RightHandIndex4
                        {
                          OFFSET -2.327586 0.0 1e-06
                          CHANNELS 3 Zrotation Yrotation Xrotation
                          JOINT RightHandIndexEnd
                          {
                            OFFSET -2.76179 -0.180656 -0.113078
                            CHANNELS 3 Zrotation Yrotation Xrotation
                          }
                        }
                      }
                    }
                  }
                  JOINT RightHandMiddle1
                  {
                    OFFSET -3.168106 0.246593 1.00103
                    CHANNELS 3 Zrotation Yrotation Xrotation
                    JOINT RightHandMiddle2
                    {
                      OFFSET -6.180828 -0.258836 -1.000895
                      CHANNELS 3 Zrotation Yrotation Xrotation
                      JOINT RightHandMiddle3
                      {
                        OFFSET -4.348901 0.0 -0.0
                        CHANNELS 3 Zrotation Yrotation Xrotation
                        JOINT RightHandMiddle4
                        {
                          OFFSET -3.00024 -4e-06 -2e-06
                          CHANNELS 3 Zrotation Yrotation Xrotation
                          JOINT RightHandMiddleEnd
                          {
                            OFFSET -2.30252 -0.29437 -0.031706
                            CHANNELS 3 Zrotation Yrotation Xrotation
                          }
                        }
                      }
                    }
                  }
                  JOINT RightHandRing1
                  {
                    OFFSET -2.88569 -0.067952 -0.308858
                    CHANNELS 3 Zrotation Yrotation Xrotation
                    JOINT RightHandRing2
                    {
                      OFFSET -5.854198 -0.48613 -1.373731
                      CHANNELS 3 Zrotation Yrotation Xrotation
                      JOINT RightHandRing3
                      {
                        OFFSET -4.33881 -4e-06 -0.0
                        CHANNELS 3 Zrotation Yrotation Xrotation
                        JOINT RightHandRing4
                        {
                          OFFSET -2.654903 -4e-06 4e-06
                          CHANNELS 3 Zrotation Yrotation Xrotation
                          JOINT RightHandRingEnd
                          {
                            OFFSET -1.933568 0.077527 -5.2e-05
                            CHANNELS 3 Zrotation Yrotation Xrotation
                          }
                        }
                      }
                    }
                  }
                  JOINT RightHandPinky1
                  {
                    OFFSET -2.866425 -0.342796 -1.584145
                    CHANNELS 3 Zrotation Yrotation Xrotation
                    JOINT RightHandPinky2
                    {
                      OFFSET -5.091371 -1.332055 -1.772385
                      CHANNELS 3 Zrotation Yrotation Xrotation
                      JOINT RightHandPinky3
                      {
                        OFFSET -3.062664 -4e-06 1e-06
                        CHANNELS 3 Zrotation Yrotation Xrotation
                        JOINT RightHandPinky4
                        {
                          OFFSET -1.546529 4e-06 -2e-06
                          CHANNELS 3 Zrotation Yrotation Xrotation
                          JOINT RightHandPinkyEnd
                          {
                            OFFSET -1.945119 -0.157718 0.057211
                            CHANNELS 3 Zrotation Yrotation Xrotation
                          }
                        }
                      }
                    }
                  }
                }
              }
            }
          }
        }
      }
    }
    JOINT LeftLeg
    {
      OFFSET 10.043214 -8.434526 2.595655
      CHANNELS 3 Zrotation Yrotation Xrotation
      JOINT LeftShin
      {
        OFFSET -1e-06 -43.221752 -0.802913
        CHANNELS 3 Zrotation Yrotation Xrotation
        JOINT LeftFoot
        {
          OFFSET 1e-06 -42.155094 -3.481523
          CHANNELS 3 Zrotation Yrotation Xrotation
          JOINT LeftToeBase
          {
            OFFSET 0.0 -5.059472 13.231529
            CHANNELS 3 Zrotation Yrotation Xrotation
            JOINT LeftToeEnd
            {
              OFFSET -0.009607 -1.647619 6.513017
              CHANNELS 3 Zrotation Yrotation Xrotation
            }
          }
        }
      }
    }
    JOINT RightLeg
    {
      OFFSET -10.047278 -8.29526 2.620317
      CHANNELS 3 Zrotation Yrotation Xrotation
      JOINT RightShin
      {
        OFFSET 1e-06 -43.362206 -0.805556
        CHANNELS 3 Zrotation Yrotation Xrotation
        JOINT RightFoot
        {
          OFFSET 2e-06 -42.117393 -3.478398
          CHANNELS 3 Zrotation Yrotation Xrotation
          JOINT RightToeBase
          {
            OFFSET -0.0 -5.079609 13.284196
            CHANNELS 3 Zrotation Yrotation Xrotation
            JOINT RightToeEnd
            {
              OFFSET 0.009532 -1.634378 6.460591
              CHANNELS 3 Zrotation Yrotation Xrotation
            }
          }
        }
      }
    }
  }
}
MOTION
Frames: 5
Frame Time: 0.03333333333333333
0.0 0.0 0.0 0.0 -0.0 0.0 2.369174 99.902107 -0.688981 -0.317217 -6.316399 -2.463225 0.507919 -0.083022 -3.822787 -0.265757 0.099961 -6.242167 0.218617 -1.709118 12.765861 0.985895 2.474767 5.254936 -0.427902 1.222652 -3.612126 -0.481338 0.891076 -7.190538 7.7e-05 -2.3e-05 6e-06 0.01735 -0.036173 0.025795 0.695678 -3.756433 -10.472784 -0.663529 3.690639 -10.469394 -20.243059 -6.516771 12.772564 -53.314613 -8.090161 18.910633 0.128875 -30.691132 0.095991 -10.482201 -4.164326 1.155453 -5.88211 9.861292 0.702589 -10.936877 -0.360573 7.156211 -1e-06 8.774829 -1e-06 -15.760092 18.135132 6.242567 -1.844034 2.498506 -2.507277 -10.163605 4.678949 4.621109 -20.976034 -2e-06 3e-06 -21.226301 2.451699 -3.594003 0.0 -5e-06 -0.0 -1.362683 2.2408 -0.746322 -21.334929 0.584913 3.008324 -13.821221 -0.0 1e-06 -23.887182 -0.249077 -0.839486 -59.541729 2.67845 -1.170964 -0.294025 1.679688 0.833255 -14.218217 0.093217 1.300579 -34.212067 -0.287561 0.967166 -20.033226 0.96454 1.212841 2e-06 -0.0 1e-06 -3.440391 0.788234 0.501657 -15.928198 -3.16731 2.999709 -6.338829 0.0 1e-06 -18.123459 3.648185 -4.905676 -5e-06 -0.0 -2e-06 26.535749 11.835056 16.966564 46.908871 5.172801 20.404793 -0.188466 21.887846 -0.008542 9.412096 5.91384 -10.509375 2.243544 -5.255039 -3.180159 14.2829 -0.826596 6.952503 -1e-06 -12.690607 -1e-06 16.260557 -17.867144 2.422018 1.665668 -1.955923 -2.878301 4.727802 -4.170589 4.993925 11.020535 1e-06 -1e-06 12.109059 -3.735718 -2.866787 -0.0 0.0 -0.0 1.291987 -1.928549 -1.498091 14.800139 0.567467 3.865608 14.242585 -1.341736 -6.660661 19.631985 0.143924 -0.648247 49.65284 -0.55619 -6.584559 0.353029 -1.511151 -0.03194 20.222803 3.684309 2.31663 18.787287 5e-06 -3e-06 10.751635 -0.479869 1.397905 0.0 -0.0 0.0 3.273808 0.305947 -0.580111 21.48683 11.830378 2.266131 8.162934 1e-06 -2e-06 18.399096 -3.798986 -4.94058 4e-06 1e-06 -2e-06 5.393347 9.432893 5.085352 0.023277 -0.00886 3.618631 -5.36553 2.784467 -5.777327 1.642723 -2.040499 0.143937 -0.0 -0.0 2e-06 -5.986527 -10.257446 4.594359 -0.004397 -0.066448 2.551203 6.62659 -3.40398 -3.769213 -1.411264 0.850183 -0.492263 0.0 0.0 -1e-06 
0.0 0.0 0.0 0.0 -0.0 0.0 2.358486 99.905518 -0.810501 -0.270023 -6.060718 -2.541158 0.50172 -0.095937 -3.815642 -0.271367 0.099636 -6.235736 0.103056 -1.688314 12.761993 1.076234 2.479173 5.303339 -0.480951 1.096458 -3.623379 -0.512544 0.782221 -7.121426 7.7e-05 -2.3e-05 6e-06 0.014894 -0.052714 0.025627 0.691619 -3.772888 -10.477471 -0.664221 3.673403 -10.471225 -20.364851 -6.548955 12.80171 -53.255646 -8.078487 18.91021 0.084328 -30.282782 0.087939 -10.529559 -4.184313 1.448763 -5.882106 9.861286 0.702592 -10.936877 -0.360578 7.156209 4e-06 8.774831 0.0 -15.783191 18.144243 6.235699 -1.844032 2.498504 -2.507278 -10.163604 4.678944 4.621112 -20.976034 -1e-05 6e-06 -21.226295 2.45169 -3.593993 1e-06 -6e-06 -0.0 -1.362681 2.240798 -0.746324 -21.334925 0.584902 3.008327 -13.82122 -7e-06 5e-06 -23.887178 -0.249085 -0.839476 -59.566093 2.686369 -1.196324 -0.294025 1.679687 0.833257 -14.218217 0.09321 1.300583 -34.21207 -0.287574 0.967178 -20.033226 0.964533 1.212849 1e-06 1e-06 1e-06 -3.44039 0.788232 0.501655 -15.928196 -3.167316 2.999709 -6.338828 -2e-06 2e-06 -18.123451 3.648179 -4.905668 -5e-06 0.0 -2e-06 26.589144 11.829132 17.004807 46.52618 5.261417 20.826616 -0.172655 22.101458 -0.009578 9.389301 6.157021 -10.458166 2.24354 -5.255036 -3.180158 14.28289 -0.826592 6.952505 -6e-06 -12.690603 2e-06 16.292318 -17.856405 2.401105 1.665665 -1.955921 -2.878298 4.727797 -4.170587 4.993925 11.020526 6e-06 0.0 12.109051 -3.735713 -2.866781 -1e-06 -0.0 -1e-06 1.291985 -1.92855 -1.498088 14.800131 0.567471 3.865608 14.242569 -1.341732 -6.660654 19.631968 0.143929 -0.648239 49.665977 -0.573895 -6.598231 0.353028 -1.51115 -0.031941 20.22279 3.684313 2.316633 18.78727 6e-06 5e-06 10.751628 -0.479868 1.397907 0.0 0.0 -0.0 3.273807 0.305948 -0.580109 21.486818 11.830379 2.266136 8.162929 4e-06 2e-06 18.399078 -3.798983 -4.94057 4e-06 2e-06 -2e-06 5.343214 9.30007 5.004837 0.02079 -0.013966 3.686341 -5.383674 2.728518 -5.70708 1.643633 -2.032603 0.130512 -0.0 -0.0 2e-06 -6.030612 -10.27043 4.593979 -0.00571 -0.076737 2.654165 6.575007 -3.609153 -3.808984 -1.410632 0.834401 -0.504652 0.0 0.0 -1e-06 
0.0 0.0 0.0 0.0 -0.0 0.0 2.340967 99.909241 -0.933571 -0.219393 -5.795534 -2.620312 0.497208 -0.098371 -3.8097 -0.28005 0.114396 -6.236636 0.012719 -1.647553 12.780218 1.184808 2.477289 5.37076 -0.53214 0.979476 -3.632346 -0.556628 0.657319 -7.091232 7.7e-05 -2.3e-05 6e-06 0.01357 -0.06312 0.027272 0.689028 -3.783676 -10.486167 -0.664244 3.663123 -10.476804 -20.45948 -6.571673 12.82371 -53.175842 -7.966732 18.803764 0.069666 -29.861895 0.063613 -10.515587 -4.187491 1.680033 -5.88211 9.861291 0.70259 -10.936878 -0.360576 7.156208 0.0 8.774829 -3e-06 -15.797174 18.151447 6.245578 -1.844034 2.498508 -2.507278 -10.163606 4.678946 4.621109 -20.976038 -4e-06 2e-06 -21.226299 2.451697 -3.594002 1e-06 -5e-06 -0.0 -1.362682 2.240799 -0.746325 -21.334929 0.584911 3.008323 -13.821222 -1e-06 1e-06 -23.887184 -0.249078 -0.839485 -59.602192 2.691657 -1.188292 -0.294025 1.679688 0.833257 -14.218216 0.093214 1.300581 -34.212067 -0.287564 0.96717 -20.033226 0.964536 1.212843 1e-06 1e-06 1e-06 -3.440392 0.788233 0.501656 -15.928196 -3.167311 2.999707 -6.33883 -3e-06 1e-06 -18.123459 3.648183 -4.905675 -5e-06 0.0 -1e-06 26.662725 11.857656 17.039112 46.119526 5.469159 21.1528 -0.180858 22.194084 -0.01791 9.284033 6.397745 -10.439011 2.243543 -5.25504 -3.180158 14.282898 -0.826595 6.952506 -2e-06 -12.690613 0.0 16.30958 -17.838455 2.392557 1.665667 -1.955922 -2.878302 4.727801 -4.17059 4.993927 11.020531 2e-06 -1e-06 12.109058 -3.735718 -2.866786 -0.0 -0.0 -0.0 1.291986 -1.92855 -1.49809 14.800136 0.567468 3.865609 14.242582 -1.341737 -6.660662 19.631983 0.143926 -0.648246 49.670906 -0.571363 -6.599379 0.353029 -1.511152 -0.03194 20.222803 3.684313 2.31663 18.787287 5e-06 -0.0 10.751634 -0.479869 1.397906 0.0 0.0 -0.0 3.273809 0.305947 -0.580111 21.486828 11.830384 2.266133 8.162931 1e-06 -1e-06 18.399094 -3.798987 -4.940579 4e-06 1e-06 -2e-06 5.299306 9.17735 4.935915 0.021463 -0.022158 3.731339 -5.384089 2.651492 -5.616469 1.64543 -2.025785 0.114967 -0.0 -0.0 2e-06 -6.070614 -10.313023 4.592624 -0.009717 -0.084285 2.769158 6.522399 -3.798035 -3.859338 -1.412161 0.822806 -0.502284 0.0 0.0 -1e-06 
0.0 0.0 0.0 0.0 -0.0 0.0 2.315507 99.911369 -1.050103 -0.169574 -5.518842 -2.693526 0.492582 -0.090382 -3.806334 -0.294121 0.138294 -6.239156 -0.047169 -1.610968 12.806114 1.286504 2.467066 5.448909 -0.568187 0.854636 -3.638676 -0.614223 0.54632 -7.089467 7.7e-05 -2.3e-05 6e-06 0.012956 -0.071148 0.032084 0.6878 -3.791834 -10.49154 -0.664266 3.655083 -10.480061 -20.507719 -6.581276 12.834813 -53.113636 -7.748671 18.649128 0.108697 -29.438229 0.019378 -10.459338 -4.123421 1.86534 -5.882105 9.861288 0.70259 -10.936869 -0.360574 7.156204 -1e-06 8.774827 -1e-06 -15.810017 18.148441 6.253094 -1.844032 2.498506 -2.507277 -10.163596 4.678946 4.621109 -20.976017 -1e-06 1e-06 -21.226284 2.451699 -3.594004 1e-06 -6e-06 -0.0 -1.362681 2.2408 -0.746324 -21.334911 0.584912 3.008322 -13.821213 -0.0 1e-06 -23.887167 -0.249077 -0.839486 -59.640945 2.683686 -1.164138 -0.294024 1.679688 0.833253 -14.218204 0.093217 1.300581 -34.212036 -0.28756 0.967166 -20.033205 0.964537 1.212841 0.0 -0.0 0.0 -3.440388 0.788234 0.501656 -15.928183 -3.167308 2.999706 -6.338824 -1e-06 0.0 -18.123444 3.648183 -4.905673 -4e-06 1e-06 -3e-06 26.750244 11.911348 17.033306 45.71767 5.738886 21.359009 -0.207024 22.223553 -0.029116 9.116116 6.614754 -10.458358 2.243544 -5.255042 -3.180159 14.282902 -0.826598 6.952507 1e-06 -12.690614 1e-06 16.313261 -17.820536 2.406098 1.665668 -1.955924 -2.878302 4.727804 -4.170592 4.993927 11.020536 0.0 -1e-06 12.109063 -3.73572 -2.866788 -0.0 -0.0 1e-06 1.291987 -1.928551 -1.498092 14.800139 0.567466 3.86561 14.242584 -1.341739 -6.660665 19.631985 0.143924 -0.64825 49.684177 -0.572251 -6.576421 0.35303 -1.511152 -0.03194 20.222805 3.684308 2.316631 18.787292 3e-06 -4e-06 10.751637 -0.47987 1.397906 1e-06 0.0 -0.0 3.273809 0.305946 -0.580111 21.486828 11.83038 2.266131 8.162936 1e-06 -1e-06 18.399099 -3.798989 -4.940581 5e-06 1e-06 -2e-06 5.259785 9.040028 4.859177 0.022701 -0.030423 3.784734 -5.376029 2.575373 -5.53257 1.647841 -2.024896 0.100493 -0.0 -0.0 2e-06 -6.104716 -10.381038 4.574962 -0.013208 -0.086449 2.913433 6.489151 -3.965338 -3.932533 -1.414496 0.814258 -0.498704 0.0 0.0 -1e-06 
0.0 0.0 0.0 0.0 -0.0 0.0 2.283172 99.915573 -1.1613 -0.125542 -5.251689 -2.752888 0.490929 -0.073868 -3.807168 -0.310921 0.163704 -6.239558 -0.086951 -1.582396 12.828328 1.373049 2.448789 5.516179 -0.599581 0.738011 -3.638172 -0.665796 0.440842 -7.091477 7.7e-05 -2.3e-05 6e-06 0.011978 -0.077228 0.03902 0.685003 -3.797936 -10.490605 -0.66344 3.64889 -10.478774 -20.52947 -6.561943 12.854113 -53.06118 -7.465977 18.420418 0.169382 -28.986736 -0.026079 -10.358713 -3.98036 2.062703 -5.882106 9.86129 0.702588 -10.936872 -0.360577 7.156204 1e-06 8.774828 -2e-06 -15.839388 18.145554 6.247864 -1.844033 2.498505 -2.507277 -10.163599 4.678944 4.621107 -20.976023 -6e-06 1e-06 -21.226286 2.451694 -3.594 1e-06 -6e-06 -1e-06 -1.362682 2.240798 -0.746322 -21.334915 0.584906 3.008322 -13.821215 -4e-06 3e-06 -23.887175 -0.249083 -0.839481 -59.685184 2.668238 -1.144205 -0.294024 1.679687 0.833256 -14.21821 0.093213 1.300577 -34.212051 -0.287568 0.967167 -20.033216 0.964532 1.212842 0.0 -0.0 0.0 -3.440389 0.788233 0.501655 -15.928185 -3.167312 2.999702 -6.338826 -1e-06 0.0 -18.123444 3.648182 -4.905672 -5e-06 1e-06 -2e-06 26.83497 11.970682 17.018671 45.369198 6.052149 21.360033 -0.230252 22.257191 -0.039437 8.947495 6.792802 -10.466591 2.243541 -5.255037 -3.180157 14.282895 -0.826594 6.952505 -3e-06 -12.690605 1e-06 16.300938 -17.801233 2.432832 1.665667 -1.955921 -2.878299 4.727799 -4.17059 4.993923 11.02053 4e-06 1e-06 12.109056 -3.735716 -2.866785 -1e-06 -0.0 1e-06 1.291986 -1.92855 -1.498091 14.800132 0.567468 3.865611 14.242577 -1.341736 -6.660657 19.631973 0.143925 -0.648244 49.720623 -0.590717 -6.540115 0.353029 -1.511151 -0.031939 20.222797 3.684313 2.31663 18.787281 4e-06 1e-06 10.751631 -0.479869 1.397907 2e-06 0.0 -1e-06 3.273807 0.305947 -0.580112 21.48682 11.830379 2.266135 8.16293 1e-06 0.0 18.399084 -3.798987 -4.940575 5e-06 1e-06 -1e-06 5.226792 8.898133 4.792572 0.023765 -0.036767 3.802625 -5.372978 2.506886 -5.435065 1.649288 -2.027777 0.109316 -0.0 -0.0 2e-06 -6.135552 -10.484253 4.560107 -0.014424 -0.083836 3.032807 6.476995 -4.093732 -3.986799 -1.416356 0.812286 -0.489033 -0.0 0.0 -1e-06 
